<svg width="100" height="20" viewBox="0 0 100 20" xmlns="http://www.w3.org/2000/svg">
  <!-- Bouncing platform base -->
  <rect x="0" y="0" width="100" height="20" fill="#4CAF50" stroke="#2E7D32" stroke-width="1"/>
  
  <!-- Spring pattern -->
  <line x1="10" y1="5" x2="90" y2="5" stroke="#66BB6A" stroke-width="2"/>
  <line x1="15" y1="10" x2="85" y2="10" stroke="#66BB6A" stroke-width="2"/>
  <line x1="20" y1="15" x2="80" y2="15" stroke="#66BB6A" stroke-width="2"/>
  
  <!-- Spring coils -->
  <circle cx="20" cy="8" r="2" fill="#81C784"/>
  <circle cx="30" cy="12" r="2" fill="#81C784"/>
  <circle cx="40" cy="8" r="2" fill="#81C784"/>
  <circle cx="50" cy="12" r="2" fill="#81C784"/>
  <circle cx="60" cy="8" r="2" fill="#81C784"/>
  <circle cx="70" cy="12" r="2" fill="#81C784"/>
  <circle cx="80" cy="8" r="2" fill="#81C784"/>
  
  <!-- Bounce effect arrows -->
  <path d="M 25 2 L 30 5 L 25 8 M 30 5 L 35 5" stroke="#FFD700" stroke-width="1" fill="none"/>
  <path d="M 45 2 L 50 5 L 45 8 M 50 5 L 55 5" stroke="#FFD700" stroke-width="1" fill="none"/>
  <path d="M 65 2 L 70 5 L 65 8 M 70 5 L 75 5" stroke="#FFD700" stroke-width="1" fill="none"/>
</svg>
